<?xml version="1.0" encoding="UTF-8"?>
<svg id="Layer_1" data-name="Layer 1" xmlns="http://www.w3.org/2000/svg" viewBox="0 0 209.5 349.07">
  <defs>
    <style>
      .cls-1 {
        fill: #c8d7ef;
      }

      .cls-1, .cls-2, .cls-3, .cls-4, .cls-5, .cls-6, .cls-7, .cls-8, .cls-9, .cls-10, .cls-11 {
        stroke-width: 0px;
      }

      .cls-2 {
        fill: #25272b;
      }

      .cls-12 {
        fill: #faf06d;
      }

      .cls-12, .cls-13, .cls-14, .cls-15 {
        stroke-miterlimit: 10;
      }

      .cls-12, .cls-14, .cls-15 {
        stroke: #928261;
      }

      .cls-3 {
        fill: #f3e1cb;
      }

      .cls-13 {
        stroke: #e48125;
      }

      .cls-13, .cls-15 {
        fill: none;
      }

      .cls-4 {
        fill: #fff;
      }

      .cls-5 {
        fill: #3e5f80;
      }

      .cls-6 {
        fill: #575757;
      }

      .cls-14 {
        fill: #e5de5c;
      }

      .cls-7 {
        fill: #71675a;
        opacity: .69;
      }

      .cls-8 {
        fill: #e7bfbf;
      }

      .cls-9 {
        fill: #ab4140;
      }

      .cls-10 {
        fill: #8a7f6e;
      }

      .cls-11 {
        fill: #77408f;
      }
    </style>
  </defs>
  <g>
    <g>
      <g>
        <path class="cls-2" d="m143,320.51c.33,1.33.67,2.67,1,4-5.04,1.81-13.02,4-23,4-5.36,0-13.61-.63-23-4,.33-1.83.67-3.66,1-5.49,5.88,1.43,13.33,2.71,22,3,8.6.28,16.06-.49,22-1.51Z"/>
        <path class="cls-2" d="m54,319.02c-.33,1.33-.67,2.67-1,4,5.04,1.81,13.02,4,23,4,5.36,0,13.61-.63,23-4v-4c-6.37,1.14-14.14,2.03-23,2-8.43-.03-15.85-.9-22-2Z"/>
        <path class="cls-11" d="m88,207.02c9.33.33,18.67.67,28,1-1,22.67-2,45.33-3,68h-25v-69Z"/>
        <path class="cls-2" d="m114,199.02c5.33-.33,10.67-.67,16-1,4.63,2.53,19.64,11.5,27.5,30.5,9.37,22.66,1.67,42.89,0,47,1.67,11.33,3.33,22.67,5,34-11.62,2.73-23.23,5.46-34.85,8.19-1.9.11-6.36.11-10.65-2.69-8.43-5.49-8.03-16.41-8-17,1.67-33,3.33-66,5-99Z"/>
        <path class="cls-2" d="m72,195.02c5.67.67,11.33,1.33,17,2,.67,25.67,1.33,51.33,2,77,2.6,21.46-1.25,38.8-11,43-1.39.6-3.03.99-5,1-4.54,0-10.39-.41-17-2-7.61-1.83-13.68-4.61-18-7,2-11.33,4-22.67,6-34-1.71-3.1-12.38-23.2-4-47,7.83-22.23,26.54-31.38,30-33Z"/>
        <path class="cls-3" d="m88,197.02l1,9c.52.65,5.21,6.24,13,6,7.19-.22,11.4-5.25,12-6v-7l-26-2Z"/>
        <path class="cls-3" d="m201,174.02c-1.58,8.67-9.9,15.74-16,15-3.24-.39-6-2-6-2-2.61-1.52-3.11-2.89-5-3-.82-.05-1.33.18-5,2-2.5,1.24-3.75,1.86-4,2-3.04,1.66-14.21,6.49-24,9-11.91,3.05-21.52,2.62-35,2-8.91-.41-15.43-1.4-27-3-11.74-1.62-17.69-2.46-22-4-4.56-1.63-18.46-6.6-27-16-1.06-1.17-2.84-3.29-6-5-4.89-2.65-7.5-.74-12-3-3.01-1.51-10.05-5.04-11-12-.52-3.82.86-8.18,4-11,4.18-3.76,9.64-3.15,11-3,4.4.49,6.04,2.65,7,2,2.82-1.9-12.34-19.75-12-34,.64-26.57,55.62-58.77,107-52,24.28,3.2,64.36,17.29,71,44,4.86,19.56-6.9,51.16,3,56,1.73.85,4.71,1.16,7,4,1.15,2.24,2.96,6.7,2,12Z"/>
        <path class="cls-14" d="m95.53,5.91c1.65-3.49,5.23-5.63,8.97-5.39,3.34.21,6.33,2.29,7.78,5.39"/>
        <path class="cls-10" d="m182,99.02c5.67-4.33,11.33-8.67,17-13,.27,2.08.69,5.6,1,10,.69,9.69.13,13.12,2,18,.84,2.19,2.48,5.48,6,9-.78.28-3.66,1.23-7,0-2.97-1.09-4.52-2.26-5-3,1.06,4.83,2.07,11.18,1,20-.93,7.66-3.12,13.79-5,18-2.67.33-5.33.67-8,1,1.61-8.99,2.81-20.58,2-34-.61-10.01-2.2-18.77-4-26Z"/>
        <path class="cls-10" d="m165,106.02c5-2,10-3,15-5-.4,3.03-1.23,6.85-3,11-3.47,8.11-8.74,13.29-12,16v-22Z"/>
        <path class="cls-10" d="m104,109.02h14c-.33,3-.67,6-1,9-2.06-.94-4.47-2.24-7-4-2.45-1.7-4.43-3.45-6-5Z"/>
        <path class="cls-10" d="m63,109.02h21l3,9c-2.72.15-7.52.07-13-2-5.42-2.04-9.05-5.1-11-7Z"/>
        <path class="cls-10" d="m30,101.02c3.67,1.33,7.33,2.67,11,4-.72,3.59-1.31,8.38-1,14,.26,4.76,1.11,8.83,2,12-2.49-2.59-6.32-7.21-9-14-2.61-6.6-3.02-12.44-3-16Z"/>
        <path class="cls-10" d="m10,85.02c-1.61,5.37-4.43,17.37-1,32,3.21,13.71,10.29,22.82,14,27-.09-6.74.35-14.9,2-24,1.31-7.25,3.12-13.62,5-19-6.67-5.33-13.33-10.67-20-16Z"/>
        <path class="cls-15" d="m178.64,84c.04.14.09.29.12.43,3.07,10.41,5.99,24.01,6.74,40.09.63,13.6-.46,25.47-2,35"/>
        <path class="cls-15" d="m191.59,158.34c2.47-4.89,6-13.62,5.91-24.82-.04-5.57-.96-10.32-2-14,.69.84,2.63,3,6,4,3.24.97,5.95.31,7,0-1.35-1.22-3.29-3.19-5-6-5.26-8.63-3.39-16.98-4-26-.15-2.32-.5-5-1.18-8-1.12-4.88-3.16-10.62-6.82-17l5.43,4.53s.01,0,.01.01"/>
        <path class="cls-15" d="m11.61,72.56c.28-.35.58-.69.89-1.04,2.13-2.37,4.32-3.97,6-5-1.5,2.3-5.26,8.35-7.95,17-2.52,8.06-4.11,18.38-2.05,30,2.77,15.68,10.85,26.26,15,31-.21-7.7.19-16.86,2-27,1.3-7.35,3.15-14.08,5.26-20.16-.68,4.67-.62,9.79.74,15.16,2.37,9.38,7.71,15.72,11,19-1.5-4.97-5.31-19.89,1-37,1.54-4.18,3.45-7.84,5.47-11,4.52-7.07,9.61-11.64,12.53-14-3.36,4.21-5.51,9.04-6.43,14-1.44,7.64.03,15.59,4.43,22,5.96,8.69,16.49,13.42,27.41,12.5-1.4-3.37-6.12-15.79-1.41-30.5.45-1.4.95-2.73,1.52-4,6.5-14.97,19.58-21.38,21.98-22.5-7.76,5.41-12.69,13.67-13.91,22.5-.52,3.62-.4,7.34.41,11,3.8,17.24,20.64,23.21,21.5,23.5.34-5.17,1.73-15.59,8.5-26.5,1.9-3.06,3.94-5.71,5.99-8,4.72-5.28,9.48-8.62,12.51-10.5,2.42,1.92,6.35,5.36,10.19,10.5,2.64,3.51,5.24,7.83,7.31,13,5.71,14.3,3.98,26.91,3,32,3.21-2.52,8.41-7.33,12-15,5.89-12.6,3.48-24.53,2.26-29.09"/>
        <path class="cls-13" d="m178.5,83.52c.04.14.09.3.14.48"/>
        <path class="cls-12" d="m200.45,83.52H8.93c-.2,0-.36-.19-.31-.39.81-3.61,1.81-7.13,2.99-10.57,2.66-7.77,6.24-15.07,10.59-21.77,2.49-3.85,5.23-7.5,8.2-10.93,1.45-1.69,2.96-3.33,4.53-4.91,14.31-14.52,32.9-24.51,53.23-28.04,4.45-.78,8.98-1.25,13.57-1.39h.04c1.9-.06,3.81-.06,5.73,0,14.86.45,29.07,4.33,41.77,10.95.4.2.79.41,1.18.62,2.63,1.42,5.2,2.95,7.69,4.61h.01c.4.26.8.53,1.19.8,1.99,1.35,3.93,2.78,5.81,4.28,1.1.87,2.18,1.77,3.24,2.69,4.97,4.31,9.53,9.12,13.58,14.36,6.29,8.12,11.38,17.27,14.96,27.22,0,0,.01,0,.01.01,1.44,4,2.63,8.14,3.57,12.38,0,.04-.02.08-.07.08Z"/>
        <path class="cls-12" d="m9.03,84.02l4.92,4.93c12.51,12.53,29.5,19.57,47.21,19.57h87.3c20.25,0,39.37-9.2,52.04-25h.03s0,0,0,0H9.24c-.26,0-.39.31-.21.5Z"/>
        <path class="cls-15" d="m23.5,144.52c-.84-.46-8.11-4.21-14-2-5.54,2.08-8.95,7.56-9,12-.08,7.41,9.12,15.85,23,16,5.84,5.9,15.72,14.36,30,20,8.99,3.55,15.79,4.42,29,6,22.56,2.7,38.77,4.64,59,0,7.89-1.81,19.64-5.37,33-13,3.3,3.91,6.55,4.76,8,5,8.93,1.49,18.69-8.6,19-18,.04-1.29.19-5.74-3-9-3.4-3.47-9.29-4.26-15-2"/>
        <path class="cls-15" d="m130.33,198.49c5.6,2.99,17.57,10.43,25.17,25.03,14.16,27.17.58,54.91-1,58-3.24.29-7.79.3-13-1-9.09-2.26-15.12-7.25-18-10,3.15-4.13,7.02-10.13,10-18,2.3-6.08,3.43-11.6,4-16"/>
        <polyline class="cls-15" points="132.5 199.52 130.32 214.13 116.32 213.13 129.32 221.13 110.5 261.52"/>
        <ellipse class="cls-5" cx="63" cy="145.02" rx="7" ry="9"/>
        <ellipse class="cls-5" cx="143" cy="148.02" rx="7" ry="9"/>
        <path class="cls-15" d="m95,150.02c.38.43,3.56,3.86,8.5,3.5,4.05-.29,6.49-2.93,7-3.5"/>
        <path class="cls-15" d="m89,172.02c3.2,4.39,8.94,6.93,14.81,6.52,7.23-.5,11.18-5.23,11.69-5.87"/>
        <polygon class="cls-15" points="91.67 275.74 109.72 275.74 109.45 280.69 91.67 280.69 91.67 275.74"/>
        <path class="cls-15" d="m88.89,206.47c.8.78,5.93,5.62,13.61,5.05,6.08-.45,9.95-4.01,11-5.05"/>
        <circle class="cls-4" cx="65" cy="143.02" r="2.5"/>
        <circle class="cls-4" cx="145.5" cy="144.52" r="2.5"/>
        <path class="cls-7" d="m87.61,166.41l28.8.93c.12,0,.24.05.33.13l3.33,2.84c.36.31.12.88-.36.87l-35.18-1.13c-.47-.02-.68-.57-.33-.86l3.05-2.63c.1-.09.23-.13.37-.13Z"/>
        <ellipse class="cls-9" cx="57" cy="325.02" rx="4" ry="2" transform="translate(-263.96 248.4) rotate(-66.63)"/>
        <ellipse class="cls-9" cx="75.61" cy="321.17" rx="2.53" ry="2" transform="translate(-249.2 263.16) rotate(-66.63)"/>
        <ellipse class="cls-9" cx="88.19" cy="325.83" rx="2" ry="4" transform="translate(-199.8 149.75) rotate(-43.41)"/>
        <ellipse class="cls-9" cx="103.86" cy="320.44" rx="2" ry="4" transform="translate(-191.81 159.05) rotate(-43.41)"/>
        <ellipse class="cls-9" cx="118.84" cy="327.44" rx="4" ry="2" transform="translate(-224.15 266.64) rotate(-60)"/>
        <ellipse class="cls-9" cx="136.84" cy="325.44" rx="2" ry="4" transform="translate(-111.08 74.1) rotate(-21.8)"/>
        <path class="cls-1" d="m99,323.02l1,23c-7.02,1.06-15.08,1.86-24,2-8.09.13-15.47-.3-22-1-5.69-1.96-9.35-7.35-9-13,.3-4.77,3.42-9.04,8-11,5.21,1.87,13.56,4.15,24,4,9.43-.14,17.02-2.21,22-4Z"/>
        <path class="cls-1" d="m99,323.02c.25,7.75.5,15.5.75,23.24,7.02,1.06,15.08,1.86,24,2,8.09.13,15.47-.3,22-1,5.74-1.83,7.7-7.54,7.25-13.24-.4-5.04-3.97-8.44-9-10-2.02.95-4.72,2.06-8,3-1.24.35-6.75,1.87-13,2-10.9.22-19.94-3.88-24-6Z"/>
        <path class="cls-6" d="m143,320.02c-6.29.81-10.38.99-13,1-.02,0-.01,0-5,0h-6c-6.49.01-6.18.08-7,0-3.4-.34-3.45-.97-7.17-1.35-1.58-.16-3.07-.16-6.05-.15-2.86,0-4.29.01-6.09.23-3.04.37-5.21,1.11-5.69,1.26-3.03.94-11.55,1.02-34-2v-5c3.23,1.13,8.04,2.5,14,3,6.88.58,10.49.88,14-1,6.7-3.59,8.31-12.6,10-22,1.34-7.49,1.28-13.8,1-18h18c-2.83,15.57-1.66,28.25,2,34,2.59,4.07,6,6,6,6,1.02.57,4.08,2.26,8,2,3.06-.2,2.67-1.33,7-2,3.38-.52,4.4.05,7-1,1.63-.66,2.38-1.34,3-1,1.07.58.6,3.51,0,6Z"/>
        <path class="cls-15" d="m53.3,318.93v4.47c6.35,2.06,16.66,4.45,29.2,3.12,6.46-.69,11.96-2.19,16.29-3.76,4.01,2.1,10.82,5.01,19.71,5.76,11.52.97,20.52-2.18,24.97-4.1v-4.34"/>
        <path class="cls-15" d="m53.3,323.4c-5.08,1.62-8.61,6.12-8.8,11.12-.23,5.88,4.2,11.37,10.5,12.5,6.5,1.03,14.45,1.77,23.5,1.5,8.23-.25,15.48-1.27,21.5-2.5,7.54.79,15.73,1.34,24.5,1.5,8.22.15,15.94-.06,23.1-.5,5.19-3.83,7.1-10.36,4.9-15.5-2.36-5.52-8.38-6.95-9.03-7.1"/>
        <path class="cls-15" d="m143.47,314.34v5.74c-5.95.91-13.02,1.55-20.97,1.44-9.17-.13-17.18-1.24-23.71-2.59v3.83l1.21,23.26"/>
        <path class="cls-15" d="m53.3,314.43v4.5c5.68,1.31,12.86,2.46,21.2,2.59,9.73.15,18-1.13,24.29-2.59.07-9.3.14-18.61.21-27.91"/>
        <path class="cls-15" d="m72.88,195.3c-2.84,1.18-25.21,10.95-32.38,36.21-7.84,27.62,9.47,49.17,11,51,3.61-1.38,8.2-3.55,13-7,3.8-2.73,6.77-5.55,9-8-2.33-3.58-4.79-7.91-7-13-3.27-7.52-5.03-14.44-6-20"/>
        <path class="cls-15" d="m46.5,274.52l-6.5,34.41c4.88,2.58,12.61,6.01,22.5,7.66,9.91,1.65,15.27,2.54,20-1.18,7.51-5.9,8.32-19.43,9-30.64.43-7.17-.03-13.12-.5-17.09-.81-23.48-1.62-46.96-2.42-70.45"/>
        <polyline class="cls-15" points="67.28 198.11 70 213.02 84 212.02 71 220.02 90.5 259.52"/>
        <path class="cls-15" d="m113.89,199.32l-5.39,98.71c0,1.05.18,10.7,7,16.41,4.58,3.84,9.47,3.65,11,3.52,12-2.74,24-5.47,36-8.21-1.18-9.21-3.82-27.03-5-36.24"/>
      </g>
      <path class="cls-15" d="m12.11,153.54c.09-.05,2.25-1.25,4.39-.03,1.97,1.13,2.17,3.32,2.19,3.5"/>
      <path class="cls-15" d="m185.1,174.31c.09-.05,2.25-1.25,4.39-.03,1.97,1.13,2.17,3.32,2.19,3.5"/>
    </g>
    <path class="cls-10" d="m130,130.02v4.06l25,.94c-3.28-1.09-6.95-2.13-11-3-5.12-1.09-9.83-1.69-14-2Z"/>
    <path class="cls-10" d="m74,128.22v4.06s-25,.94-25,.94c3.28-1.09,6.95-2.13,11-3,5.12-1.09,9.83-1.69,14-2Z"/>
  </g>
  <ellipse class="cls-8" cx="57.5" cy="169.02" rx="9.5" ry="5"/>
  <ellipse class="cls-8" cx="149.5" cy="172.02" rx="9.5" ry="5"/>
</svg>