<?xml version="1.0" encoding="UTF-8"?>
<svg id="Layer_1" data-name="Layer 1" xmlns="http://www.w3.org/2000/svg" viewBox="0 0 209.75 342.3">
  <defs>
    <style>
      .cls-1 {
        fill: #758d65;
      }

      .cls-1, .cls-2, .cls-3, .cls-4, .cls-5, .cls-6, .cls-7, .cls-8, .cls-9, .cls-10, .cls-11 {
        stroke-width: 0px;
      }

      .cls-2 {
        fill: #ceccb2;
      }

      .cls-3 {
        fill: #693d3d;
      }

      .cls-12 {
        stroke: #606161;
      }

      .cls-12, .cls-13 {
        fill: none;
        stroke-miterlimit: 10;
      }

      .cls-4 {
        fill: #383127;
      }

      .cls-5 {
        fill: #71675a;
        opacity: .3;
      }

      .cls-6 {
        fill: #fff;
      }

      .cls-7 {
        fill: #0c0c0c;
      }

      .cls-8 {
        fill: #5c5c5c;
      }

      .cls-9 {
        fill: #edd2b3;
      }

      .cls-10 {
        fill: #516e50;
      }

      .cls-13 {
        stroke: #71675a;
      }

      .cls-11 {
        fill: #e7bfbf;
      }
    </style>
  </defs>
  <path class="cls-8" d="m4.75,144c1-.62,3.51-2,7-2,1.18,0,4.04.16,7,2-.58-59.91,39.71-103.61,79-105,32.49-1.15,62.37,26.7,76,53,8.63,16.65,10.58,32.37,11,42,2.28.12,3.96.61,5,1,1.01.37,1.58.71,2,1,.98.68,1.62,1.46,2,2,2.41-8.65,11.36-44.51-8-81C170.8,28.82,139.38,1.06,99.75,1,49.92.93,14.27,44.68,3.75,83c-7.2,26.24-2.42,49.18,1,61Z"/>
  <path class="cls-9" d="m181.75,112c.65,2.59,1.11,6.1,2,13,0,0,.08.59,1,5,.39,1.86.52,2.4,1,3,.97,1.21,2.15,1.14,4,2,1.7.79,2.73,1.78,4,3,1.19,1.14,4.39,4.22,5,9,.42,3.33-.57,5.92-1,7-1.77,4.46-6.14,9.33-12,10-3.36.38-7.22-.64-9-2-.95-.73-2.03-1.29-3-2-.82-.61-1.28-1-2-1-.98,0-1.74.72-2,1-.61.66-.52,1.14-1,2-.54.97-1.25,1.45-2,2-2.64,1.94-2.2,2.19-6,5-2.13,1.58-3.67,2.72-6,4-.63.35-.2.09-7,3-1.88.8-3.31,1.42-5,1-.95-.24-1.44-.67-2-1-2.43-1.44-5.47-.62-8,0-10.58,2.6-9.47,1.42-14,3-8.42,2.93-9.59,5.24-16,6-1.33.16-4.5.6-8,0-2.43-.42-3.9-1.13-6-2-2.92-1.21-7.25-3.01-12-4-3.47-.72-4.15-.39-16-1-.31-.02-1.04-.05-2,0-2.59.15-4.43.82-5,1-2.56.78-5.41-.74-10-3-3.94-1.94-8.88-4.36-12-8-.41-.48-1.4-1.69-3-2-1.77-.34-3.27.61-4,1-4.43,2.38-10.58.45-12,0-.48-.15-9.01-2.98-11-11-.32-1.28-1.71-6.89,2-11,2.84-3.15,7.73-4.38,11-3,1.85.78,3.35,2.48,4,2,.37-.28.19-1.07,0-2-.59-2.87-.86-4.82-1-6-.15-1.26-.08-1.86,0-4,.17-4.7-.05-6.5,0-9,.05-2.69.49-5.6,2-12,2.61-11.08,4.47-18.98,9-28,6.49-12.93,14.83-20.97,17-23,21.97-20.53,49.65-21,52-21,25.74-.05,43.26,13.44,49,18,12.13,9.63,19.05,21.39,23,28,5.36,8.95,8.77,17.81,10,21,1.33,3.45,1.78,5.12,2,6Z"/>
  <polygon class="cls-3" points="49.75 202 145.75 201 143.75 281 65.75 282 49.75 202"/>
  <path class="cls-2" d="m144.75,181c1.54.06,5.09.42,8,3,0,0,3.09,2.74,4,8,1.34,7.71-13.65,24.03-37,41,1.11-3.89,3.07-9.7,6.58-16.23,3.33-6.19,5.79-8.82,9-14,2.92-4.71,6.64-11.85,9.42-21.77Z"/>
  <path class="cls-2" d="m50.75,181c-.63-.15-6.09-1.39-10,2-4,3.47-4.78,10.4-1,16,9.33,9.67,18.67,19.33,28,29-.57-2.82-1.67-7.14-4-12-3.27-6.82-6.35-9.26-9-14-2.31-4.13-4.71-10.73-4-21Z"/>
  <path class="cls-1" d="m110.75,297c5.95,2.2,17.06,5.41,31,4,10.6-1.07,18.84-4.41,24-7-.67-7-1.33-14-2-21,1.98-2.76,15.82-22.7,9-47-4.15-14.81-13.84-23.63-18-27-7.62,4.33-19.24,12.33-29,26-4.48,6.26-11.76,16.46-14,31-.69,4.49-.79,10.33-1,22-.14,7.9-.08,14.45,0,19Z"/>
  <path class="cls-1" d="m40.75,199c7.86,6.13,18.22,15.8,27,30,17.03,27.56,17.52,55.06,17,67-1.99,1.27-5.04,2.93-9,4-5.67,1.53-11.05,1.27-25-2-5.94-1.39-13.42-3.33-22-6,.87-5.23,1.04-9.68,1-13-.03-2.56-.11-6.32-1-11-.97-5.09-2.47-8.63-3-10-3.22-8.29-4.01-21.59-1-33,3.4-12.86,11.14-21.49,16-26Z"/>
  <path class="cls-7" d="m84.75,279c3.22,1.02,8.06,2.14,14,2,4.97-.12,9.07-1.07,12-2v19c3.98,1.72,10.2,3.8,18,4,4.28.11,8.01-.38,11-1-.33,5.33-.67,10.67-1,16-4.09,1.63-9.5,3.28-16,4-11.76,1.3-21.35-1.08-27-3-3.89,1.63-9.72,3.53-17,4-10.04.64-18.02-1.76-22.5-3.5-1.5-6.83-3-13.67-4.5-20.5,3,1.39,10.02,4.13,19,3,6.51-.82,11.32-3.33,14-5v-17Z"/>
  <path class="cls-4" d="m138.52,317.68c6.93,2.15,11.38,7.72,11.23,13.33-.14,5.11-3.76,6.81-4,6.99-4.32,3.46-9.02,2.66-17,1-7.93-1.65-20.2-2.76-33-7.46,0-5.51,0-10.03,0-15.54,3.67,1.96,8.92,3.21,15.5,4.34,12.29,2.12,22.31-.82,27.27-2.67Z"/>
  <path class="cls-4" d="m55.75,318.78c-6.48,2.02-10.64,7.24-10.5,12.5.13,4.79,3.78,7.82,4,8,4.04,3.25,9.53,2.55,17,1,7.41-1.54,17.53-4.1,29.5-8.5v-15.51c-3.44,1.84-8.34,3.95-14.5,5.01-11.49,1.99-20.87-.77-25.5-2.5Z"/>
  <path class="cls-13" d="m138.62,317.38c6.86,2.02,11.27,7.24,11.12,12.5-.14,4.79-4.01,7.82-4.24,8-4.28,3.25-10.1,2.55-18.01,1-7.85-1.54-18.57-2.97-31.25-7.37,0-5.17,0-9.83,0-15,3.64,1.84,8.84,2.31,15.36,3.37,12.17,1.99,22.11-.77,27.01-2.5Z"/>
  <path class="cls-13" d="m56.25,319.5l-4.5-21.5c3.43,1.38,10.56,3.7,19.5,2.5,6-.8,10.62-2.89,13.5-4.5v-17.47c3.18.97,7.83,2.01,13.5,1.97,5.35-.04,9.76-1.03,12.84-1.97v19.15c4.1,1.62,9.97,3.38,17.16,3.82,4.41.27,8.31-.03,11.5-.5-.38,5.46-.75,10.92-1.13,16.37"/>
  <line class="cls-13" x1="96.25" y1="287.72" x2="96.25" y2="316.5"/>
  <path class="cls-13" d="m51.75,298l-22.5-6.5v-24.46c-2.27-4.6-8.96-19.57-5-38.54,3.34-15.97,12.4-26.04,16.25-29.88,7.79,5.98,20.67,17.44,30.75,35.88,9.77,17.86,12.58,34.35,13.5,44.03"/>
  <path class="cls-13" d="m111.09,278.53c-.61-8.04-.49-21.28,5.16-36.03,10.3-26.89,31.77-40,38.76-43.88,3.86,3.17,14.44,12.69,18.24,28.88,5.58,23.74-7.97,42.31-10,45l3,21c-2.8,1.68-6.48,3.55-11,5-6.13,1.97-11.57,2.46-15.5,2.5"/>
  <path class="cls-13" d="m29.25,267.04c1.1,2.19,2.69,4.81,5,7.46,1.19,1.37,2.38,2.52,3.5,3.5,3.59-.23,10.4-1.17,17.5-5.5,5.17-3.15,8.53-6.91,10.5-9.5-1.94-1.16-5.68-3.75-8.5-8.5-3.47-5.85-3.48-11.51-3.36-13.76"/>
  <path class="cls-13" d="m144.54,240.75c-.44,2.86-1.34,6.64-3.29,10.76-3.06,6.46-7.27,10.67-10,13,3.31,4.29,8.17,9.48,15,14,2.42,1.6,4.78,2.92,7,4,1.77-1.17,3.88-2.79,6-5,1.69-1.76,3-3.49,4-5"/>
  <path class="cls-13" d="m61.54,177.58c-5.59-.23-10.89,2.94-12.99,8.12-.1.26-.2.53-.3.8-.1.29-.18.57-.26.85-1.49,5.56,1,11.42,5.81,14.57,6.66,4.36,15.14,8.97,25.44,12.58,2.94,1.03,5.78,1.54,8.52,1.9,7.24.95,14.59.89,21.76-.48,4.23-.81,8.87-2.12,13.71-4.41,11.47-5.44,19.35-12.41,24-17.22.06-.11,1.34-2.46,0-4.78-.91-1.58-2.68-2.51-4.53-2.37.54-.94,1.79-3.38,1.53-6.63v-.07c-.23-2.77-2.57-4.87-5.34-4.8-4.78.13-10.88.81-17.66,2.87-3.87,1.18-7.32,2.61-10.32,4.11-6.47,3.22-14,3.42-20.76.85-5.45-2.07-11.79-3.89-18.92-4.96-3.42-.51-6.67-.8-9.71-.92Z"/>
  <path class="cls-13" d="m51.75,180.96c-.41-.13-6.33-1.96-10.5,1.54-4.06,3.41-4.85,10.54-.75,16.12"/>
  <path class="cls-13" d="m144.25,180.5c5.84.45,10.63,4.1,12,9,1.22,4.36-.7,8.13-1.24,9.12"/>
  <path class="cls-13" d="m5.25,143.5c-2.43-8.48-12.71-47.74,9-87C17.95,49.82,46.13.8,99.25.5c53.24-.3,81.96,48.62,85,54,21.03,37.23,12.14,74.67,9.88,83.24"/>
  <ellipse class="cls-10" cx="60.75" cy="135" rx="7" ry="9"/>
  <ellipse class="cls-10" cx="140.75" cy="134" rx="7" ry="9"/>
  <path class="cls-13" d="m93.75,136c.84,7.44,4.24,12.3,7.65,11.5,2.89-.68,5.34-5.31,5.99-11.5"/>
  <path class="cls-13" d="m181.25,146.5c.93-.47,3.18-1.44,6-1,1.26.2,2.27.62,2.99,1"/>
  <path class="cls-13" d="m7.59,154.73c.93-.47,3.18-1.44,6-1,1.26.2,2.27.62,2.99,1"/>
  <path class="cls-13" d="m129.25,112.5c1.2-.69,4.09-2.13,8-2,3.34.11,5.81,1.31,7,2"/>
  <path class="cls-13" d="m58.75,112.5c1.22-.71,4.34-2.28,8.5-2,3.04.2,5.3,1.3,6.5,2"/>
  <circle class="cls-6" cx="63.75" cy="132" r="2"/>
  <circle class="cls-6" cx="143.75" cy="131" r="2"/>
  <path class="cls-13" d="m55.75,319c-6.48,2.02-10.64,7.24-10.5,12.5.13,4.79,3.78,7.82,4,8,4.04,3.25,9.53,2.55,17,1,7.41-1.54,17.53-4.1,29.5-8.5v-15.51c-3.44,1.84-8.34,3.95-14.5,5.01-11.49,1.99-20.87-.77-25.5-2.5Z"/>
  <path class="cls-13" d="m53.81,201.92c2.8,2.94,6.44,7.42,9.44,13.58,2.52,5.16,3.81,9.89,4.5,13.5"/>
  <path class="cls-13" d="m133.75,205.34c-2.43,2.96-5.07,6.66-7.5,11.16-3.94,7.28-5.96,14.07-7.05,19.24"/>
  <path class="cls-13" d="m143.25,177.5c3.66-.97,10.2-2.97,16-7,6-4.16,9.81-8.85,12-12,.74.73,6.24,5.97,14,5,6.51-.82,13.15-5.82,14-13,.91-7.65-5.03-15.55-14-17-.96-11.27-4.53-34.7-21-58-2.67-3.78-5.48-7.27-8.36-10.47-34.04-37.84-95.18-33.42-122.45,9.56-.4.63-.8,1.27-1.19,1.92-17.82,29.53-14.74,58.83-13.5,67.5-4.21-3.07-9.71-3.23-13.5-.5-5.36,3.85-4.15,11.18-4,12,.94,5.19,4.82,8.11,6,9,8.6,6.48,20.39,1.95,21.5,1.5,2.95,2.61,7.09,5.75,12.5,8.5,4.74,2.41,9.12,3.85,12.64,4.72"/>
  <path class="cls-13" d="m85.82,160.03c1.7,7.44,8.59,12.3,15.5,11.5,5.85-.68,10.82-5.31,12.14-11.5"/>
  <path class="cls-12" d="m44.77,124.19c-1.75,13.85,8.1,24.84,17.48,25.31,9.87.5,21.31-10.55,19.69-25.31-4.35-1.29-10.4-2.59-17.69-2.69-8.15-.11-14.85,1.32-19.48,2.69Z"/>
  <path class="cls-12" d="m120.19,125.07c-1.75,13.85,8.1,24.84,17.48,25.31,9.87.5,21.31-10.55,19.69-25.31-4.35-1.29-10.4-2.59-17.69-2.69-8.15-.11-14.85,1.32-19.48,2.69Z"/>
  <path class="cls-12" d="m81.94,124.19c5.29-1.08,12.21-1.98,20.31-1.69,7.07.26,13.15,1.36,17.94,2.57"/>
  <line class="cls-12" x1="44.77" y1="124.19" x2="18.61" y2="143"/>
  <line class="cls-12" x1="157.36" y1="125.07" x2="185.25" y2="133.5"/>
  <path class="cls-11" d="m61.75,158.5c0,2.49-3.81,4.5-8.5,4.5s-8.5-2.01-8.5-4.5,3.81-4.5,8.5-4.5,8.5,2.01,8.5,4.5Zm79.5-4.5c-4.69,0-8.5,2.01-8.5,4.5s3.81,4.5,8.5,4.5,8.5-2.01,8.5-4.5-3.81-4.5-8.5-4.5Z"/>
  <path class="cls-5" d="m28.75,166l5.37-6.7c2.27-2.82,5.82-4.27,9.42-3.83,16.43,1.99,35.13,3.28,55.71,3.03,21.95-.26,41.78-2.21,59.03-4.87,4.43-.68,8.91.8,12.07,3.97l.9.9c-2.77,3.99-7.52,9.68-15,14-5.14,2.97-9.57,4.13-13,5-19.11,4.83-28.67,7.24-38,8-13.64,1.1-31.01,2.51-51-5-11.56-4.34-20.1-10.21-25.5-14.5Z"/>
  <path class="cls-8" d="m55.23,178.82c-.89.42-5.29,2.62-6.98,7.68-1.56,4.69-.19,10.02,3.5,13.77,3.47,2.96,23.22,19.2,51.5,16.23,22.61-2.38,36.85-15.6,41-19.76,2.06-.91,3.28-3.06,3-5.24-.29-2.3-2.18-4.13-4.53-4.37,2.2-3.25,1.87-7.34-.47-9.63-2.42-2.37-5.93-1.79-6.31-1.72-3.27.07-8.07.41-13.69,1.72-12.64,2.96-13.25,7.08-21,8-11.17,1.33-14.62-6.67-30-8-6.83-.59-12.49.44-16.02,1.32Z"/>
</svg>